<svg xmlns="http://www.w3.org/2000/svg" xmlns:xlink="http://www.w3.org/1999/xlink" width="500" zoomAndPan="magnify" viewBox="0 0 375 374.999991" height="500" preserveAspectRatio="xMidYMid meet" version="1.2"><defs><clipPath id="1d62beb050"><path d="M 83.265625 57.9375 L 194.691406 57.9375 L 194.691406 319.589844 L 83.265625 319.589844 Z M 83.265625 57.9375 "/></clipPath></defs><g id="9c3c1c3c37"><g style="fill:#000000;fill-opacity:1;"><g transform="translate(86.867517, 291.722043)"><path style="stroke:none" d="M 103.421875 2.296875 C 86.617188 2.296875 71.5625 -0.429688 58.25 -5.890625 C 44.945312 -11.347656 34.3125 -19.421875 26.34375 -30.109375 C 18.382812 -40.796875 14.1875 -53.664062 13.75 -68.71875 L 73.3125 -68.71875 C 74.175781 -60.21875 77.117188 -53.726562 82.140625 -49.25 C 87.160156 -44.78125 93.707031 -42.546875 101.78125 -42.546875 C 110.070312 -42.546875 116.613281 -44.453125 121.40625 -48.265625 C 126.207031 -52.085938 128.609375 -57.378906 128.609375 -64.140625 C 128.609375 -69.816406 126.695312 -74.507812 122.875 -78.21875 C 119.0625 -81.925781 114.375 -84.976562 108.8125 -87.375 C 103.25 -89.78125 95.34375 -92.507812 85.09375 -95.5625 C 70.25 -100.144531 58.132812 -104.722656 48.75 -109.296875 C 39.375 -113.878906 31.304688 -120.644531 24.546875 -129.59375 C 17.785156 -138.539062 14.40625 -150.210938 14.40625 -164.609375 C 14.40625 -185.992188 22.148438 -202.738281 37.640625 -214.84375 C 53.128906 -226.957031 73.3125 -233.015625 98.1875 -233.015625 C 123.488281 -233.015625 143.882812 -226.957031 159.375 -214.84375 C 174.863281 -202.738281 183.15625 -185.882812 184.25 -164.28125 L 123.703125 -164.28125 C 123.265625 -171.707031 120.535156 -177.546875 115.515625 -181.796875 C 110.503906 -186.046875 104.070312 -188.171875 96.21875 -188.171875 C 89.457031 -188.171875 84.003906 -186.367188 79.859375 -182.765625 C 75.710938 -179.171875 73.640625 -173.992188 73.640625 -167.234375 C 73.640625 -159.816406 77.128906 -154.035156 84.109375 -149.890625 C 91.085938 -145.742188 101.992188 -141.269531 116.828125 -136.46875 C 131.671875 -131.445312 143.726562 -126.644531 153 -122.0625 C 162.269531 -117.488281 170.285156 -110.835938 177.046875 -102.109375 C 183.816406 -93.378906 187.203125 -82.144531 187.203125 -68.40625 C 187.203125 -55.3125 183.875 -43.414062 177.21875 -32.71875 C 170.5625 -22.03125 160.90625 -13.519531 148.25 -7.1875 C 135.59375 -0.863281 120.648438 2.296875 103.421875 2.296875 Z M 103.421875 2.296875 "/></g></g><g clip-rule="nonzero" clip-path="url(#1d62beb050)"><path style=" stroke:none;fill-rule:nonzero;fill:#ffffff;fill-opacity:1;" d="M 83.265625 57.9375 L 194.691406 57.9375 L 194.691406 319.53125 L 83.265625 319.53125 Z M 83.265625 57.9375 "/></g><g style="fill:#000000;fill-opacity:1;"><g transform="translate(183.615308, 297.340644)"><path style="stroke:none" d="M 0.296875 -13.421875 C 0.296875 -11.234375 -0.0546875 -9.273438 -0.765625 -7.546875 C -1.472656 -5.828125 -2.519531 -4.453125 -3.90625 -3.421875 C -5.289062 -2.390625 -6.960938 -1.84375 -8.921875 -1.78125 L -8.921875 -9.515625 C -7.816406 -9.617188 -6.972656 -9.992188 -6.390625 -10.640625 C -5.804688 -11.296875 -5.515625 -12.148438 -5.515625 -13.203125 C -5.515625 -14.273438 -5.757812 -15.125 -6.25 -15.75 C -6.75 -16.375 -7.441406 -16.6875 -8.328125 -16.6875 C -9.054688 -16.6875 -9.660156 -16.4375 -10.140625 -15.9375 C -10.628906 -15.445312 -11.023438 -14.835938 -11.328125 -14.109375 C -11.640625 -13.390625 -11.992188 -12.363281 -12.390625 -11.03125 C -12.984375 -9.113281 -13.578125 -7.546875 -14.171875 -6.328125 C -14.773438 -5.109375 -15.65625 -4.0625 -16.8125 -3.1875 C -17.96875 -2.3125 -19.484375 -1.875 -21.359375 -1.875 C -24.128906 -1.875 -26.300781 -2.875 -27.875 -4.875 C -29.445312 -6.882812 -30.234375 -9.503906 -30.234375 -12.734375 C -30.234375 -16.015625 -29.445312 -18.660156 -27.875 -20.671875 C -26.300781 -22.679688 -24.113281 -23.757812 -21.3125 -23.90625 L -21.3125 -16.046875 C -22.269531 -15.992188 -23.023438 -15.640625 -23.578125 -14.984375 C -24.128906 -14.335938 -24.40625 -13.503906 -24.40625 -12.484375 C -24.40625 -11.609375 -24.171875 -10.898438 -23.703125 -10.359375 C -23.242188 -9.816406 -22.570312 -9.546875 -21.6875 -9.546875 C -20.726562 -9.546875 -19.976562 -10 -19.4375 -10.90625 C -18.90625 -11.8125 -18.328125 -13.226562 -17.703125 -15.15625 C -17.046875 -17.082031 -16.421875 -18.644531 -15.828125 -19.84375 C -15.234375 -21.050781 -14.367188 -22.09375 -13.234375 -22.96875 C -12.109375 -23.84375 -10.65625 -24.28125 -8.875 -24.28125 C -7.175781 -24.28125 -5.632812 -23.847656 -4.25 -22.984375 C -2.863281 -22.117188 -1.757812 -20.863281 -0.9375 -19.21875 C -0.113281 -17.582031 0.296875 -15.648438 0.296875 -13.421875 Z M 0.296875 -13.421875 "/></g></g><g style="fill:#000000;fill-opacity:1;"><g transform="translate(183.615308, 273.791029)"><path style="stroke:none" d="M -29.796875 -24.078125 L -23.984375 -24.078125 L -23.984375 -16.171875 L 0 -16.171875 L 0 -8.921875 L -23.984375 -8.921875 L -23.984375 -1.015625 L -29.796875 -1.015625 Z M -29.796875 -24.078125 "/></g></g><g style="fill:#000000;fill-opacity:1;"><g transform="translate(183.615308, 251.259843)"><path style="stroke:none" d="M -5.265625 -21.1875 L -5.265625 -10.0625 L 0 -8.28125 L 0 -0.671875 L -29.796875 -11.46875 L -29.796875 -19.875 L 0 -30.65625 L 0 -22.96875 Z M -10.875 -19.3125 L -21.78125 -15.625 L -10.875 -11.96875 Z M -10.875 -19.3125 "/></g></g><g style="fill:#000000;fill-opacity:1;"><g transform="translate(183.615308, 222.533254)"><path style="stroke:none" d="M -29.796875 -28.1875 L -9.84375 -17.875 L 0 -17.875 L 0 -10.609375 L -9.84375 -10.609375 L -29.796875 -0.296875 L -29.796875 -8.53125 L -17.328125 -14.3125 L -29.796875 -20.03125 Z M -29.796875 -28.1875 "/></g></g><g style="fill:#000000;fill-opacity:1;"><g transform="translate(181.67302, 191.803084)"><path style="stroke:none" d="M -14.5 -2.234375 C -17.375 -2.234375 -19.9375 -2.832031 -22.1875 -4.03125 C -24.4375 -5.238281 -26.195312 -6.898438 -27.46875 -9.015625 C -28.738281 -11.128906 -29.375 -13.5 -29.375 -16.125 C -29.375 -19.4375 -28.597656 -22.222656 -27.046875 -24.484375 C -25.503906 -26.753906 -23.335938 -28.414062 -20.546875 -29.46875 L -20.546875 -27.3125 C -22.765625 -26.476562 -24.515625 -25.097656 -25.796875 -23.171875 C -27.078125 -21.253906 -27.71875 -18.90625 -27.71875 -16.125 C -27.71875 -13.882812 -27.1875 -11.851562 -26.125 -10.03125 C -25.0625 -8.207031 -23.523438 -6.769531 -21.515625 -5.71875 C -19.515625 -4.664062 -17.175781 -4.140625 -14.5 -4.140625 C -11.851562 -4.140625 -9.539062 -4.664062 -7.5625 -5.71875 C -5.582031 -6.769531 -4.054688 -8.207031 -2.984375 -10.03125 C -1.910156 -11.851562 -1.375 -13.882812 -1.375 -16.125 C -1.375 -18.90625 -2.015625 -21.253906 -3.296875 -23.171875 C -4.578125 -25.097656 -6.320312 -26.476562 -8.53125 -27.3125 L -8.53125 -29.46875 C -5.738281 -28.414062 -3.566406 -26.753906 -2.015625 -24.484375 C -0.472656 -22.222656 0.296875 -19.4375 0.296875 -16.125 C 0.296875 -13.5 -0.332031 -11.128906 -1.59375 -9.015625 C -2.851562 -6.898438 -4.609375 -5.238281 -6.859375 -4.03125 C -9.109375 -2.832031 -11.65625 -2.234375 -14.5 -2.234375 Z M -14.5 -2.234375 "/></g></g><g style="fill:#000000;fill-opacity:1;"><g transform="translate(181.67302, 162.389692)"><path style="stroke:none" d="M 0.328125 -16.375 C 0.328125 -13.6875 -0.296875 -11.265625 -1.546875 -9.109375 C -2.804688 -6.960938 -4.566406 -5.28125 -6.828125 -4.0625 C -9.097656 -2.84375 -11.65625 -2.234375 -14.5 -2.234375 C -17.375 -2.234375 -19.9375 -2.84375 -22.1875 -4.0625 C -24.4375 -5.28125 -26.191406 -6.960938 -27.453125 -9.109375 C -28.710938 -11.265625 -29.34375 -13.6875 -29.34375 -16.375 C -29.34375 -19.050781 -28.710938 -21.460938 -27.453125 -23.609375 C -26.191406 -25.765625 -24.4375 -27.453125 -22.1875 -28.671875 C -19.9375 -29.890625 -17.375 -30.5 -14.5 -30.5 C -11.65625 -30.5 -9.097656 -29.890625 -6.828125 -28.671875 C -4.566406 -27.453125 -2.804688 -25.765625 -1.546875 -23.609375 C -0.296875 -21.460938 0.328125 -19.050781 0.328125 -16.375 Z M -1.328125 -16.375 C -1.328125 -18.664062 -1.863281 -20.734375 -2.9375 -22.578125 C -4.019531 -24.429688 -5.554688 -25.890625 -7.546875 -26.953125 C -9.535156 -28.015625 -11.851562 -28.546875 -14.5 -28.546875 C -17.175781 -28.546875 -19.507812 -28.015625 -21.5 -26.953125 C -23.488281 -25.890625 -25.019531 -24.429688 -26.09375 -22.578125 C -27.175781 -20.734375 -27.71875 -18.664062 -27.71875 -16.375 C -27.71875 -14.070312 -27.175781 -11.992188 -26.09375 -10.140625 C -25.019531 -8.296875 -23.488281 -6.832031 -21.5 -5.75 C -19.507812 -4.675781 -17.175781 -4.140625 -14.5 -4.140625 C -11.851562 -4.140625 -9.535156 -4.675781 -7.546875 -5.75 C -5.554688 -6.832031 -4.019531 -8.296875 -2.9375 -10.140625 C -1.863281 -11.992188 -1.328125 -14.070312 -1.328125 -16.375 Z M -1.328125 -16.375 "/></g></g><g style="fill:#000000;fill-opacity:1;"><g transform="translate(181.67302, 132.147724)"><path style="stroke:none" d="M -29.09375 -11.5625 C -29.09375 -16.476562 -27.804688 -20.269531 -25.234375 -22.9375 C -22.660156 -25.601562 -19.082031 -26.9375 -14.5 -26.9375 C -9.914062 -26.9375 -6.351562 -25.601562 -3.8125 -22.9375 C -1.269531 -20.269531 0 -16.476562 0 -11.5625 L 0 -3.390625 L -29.09375 -3.390625 Z M -1.578125 -11.5625 C -1.578125 -15.957031 -2.710938 -19.300781 -4.984375 -21.59375 C -7.265625 -23.882812 -10.4375 -25.03125 -14.5 -25.03125 C -18.59375 -25.03125 -21.785156 -23.882812 -24.078125 -21.59375 C -26.367188 -19.300781 -27.515625 -15.957031 -27.515625 -11.5625 L -27.515625 -5.265625 L -1.578125 -5.265625 Z M -1.578125 -11.5625 "/></g></g><g style="fill:#000000;fill-opacity:1;"><g transform="translate(181.67302, 105.468637)"><path style="stroke:none" d="M -27.515625 -5.265625 L -15.375 -5.265625 L -15.375 -16.859375 L -13.796875 -16.859375 L -13.796875 -5.265625 L -1.578125 -5.265625 L -1.578125 -18.109375 L 0 -18.109375 L 0 -3.390625 L -29.09375 -3.390625 L -29.09375 -18.109375 L -27.515625 -18.109375 Z M -27.515625 -5.265625 "/></g></g><g style="fill:#000000;fill-opacity:1;"><g transform="translate(181.67302, 87.613877)"><path style="stroke:none" d="M -29.09375 -11.5625 C -29.09375 -16.476562 -27.804688 -20.269531 -25.234375 -22.9375 C -22.660156 -25.601562 -19.082031 -26.9375 -14.5 -26.9375 C -9.914062 -26.9375 -6.351562 -25.601562 -3.8125 -22.9375 C -1.269531 -20.269531 0 -16.476562 0 -11.5625 L 0 -3.390625 L -29.09375 -3.390625 Z M -1.578125 -11.5625 C -1.578125 -15.957031 -2.710938 -19.300781 -4.984375 -21.59375 C -7.265625 -23.882812 -10.4375 -25.03125 -14.5 -25.03125 C -18.59375 -25.03125 -21.785156 -23.882812 -24.078125 -21.59375 C -26.367188 -19.300781 -27.515625 -15.957031 -27.515625 -11.5625 L -27.515625 -5.265625 L -1.578125 -5.265625 Z M -1.578125 -11.5625 "/></g></g></g></svg>