<svg xmlns="http://www.w3.org/2000/svg" xmlns:xlink="http://www.w3.org/1999/xlink" width="500" zoomAndPan="magnify" viewBox="0 0 375 374.999991" height="500" preserveAspectRatio="xMidYMid meet" version="1.2"><defs/><g id="c7877aeb7a"><rect x="0" width="375" y="0" height="374.999991" style="fill:#ffffff;fill-opacity:1;stroke:none;"/><rect x="0" width="375" y="0" height="374.999991" style="fill:#000000;fill-opacity:1;stroke:none;"/><path style=" stroke:none;fill-rule:nonzero;fill:#38b6ff;fill-opacity:1;" d="M 151.144531 10.5 L 350.820312 10.5 C 375.402344 10.5 398.976562 20.265625 416.359375 37.648438 C 433.742188 55.03125 443.507812 78.605469 443.507812 103.1875 L 443.507812 288.5625 C 443.507812 313.144531 433.742188 336.71875 416.359375 354.101562 C 398.976562 371.484375 375.402344 381.25 350.820312 381.25 L 151.144531 381.25 C 99.953125 381.25 58.457031 339.753906 58.457031 288.5625 L 58.457031 103.1875 C 58.457031 51.996094 99.953125 10.5 151.144531 10.5 Z M 151.144531 10.5 "/><g style="fill:#000000;fill-opacity:1;"><g transform="translate(164.456245, 261.500006)"><path style="stroke:none" d="M 81.890625 1.859375 C 77.117188 1.859375 72.4375 1.679688 67.84375 1.328125 C 63.25 0.972656 58.832031 0.53125 54.59375 0 L 6.09375 0 L 6.09375 -124.015625 C 6.09375 -135.503906 8.078125 -144.957031 12.046875 -152.375 C 16.023438 -159.789062 21.148438 -165.617188 27.421875 -169.859375 C 33.691406 -174.097656 40.445312 -177.101562 47.6875 -178.875 C 54.9375 -180.644531 61.832031 -181.53125 68.375 -181.53125 C 84.976562 -181.53125 99.769531 -179.71875 112.75 -176.09375 C 125.738281 -172.46875 135.988281 -167.117188 143.5 -160.046875 C 151.007812 -152.984375 154.765625 -144.242188 154.765625 -133.828125 C 154.765625 -122.867188 150.609375 -113.851562 142.296875 -106.78125 C 133.992188 -99.71875 122.78125 -94.597656 108.65625 -91.421875 C 126.5 -89.128906 140.894531 -84.40625 151.84375 -77.25 C 162.800781 -70.09375 168.28125 -60.242188 168.28125 -47.703125 C 168.28125 -37.453125 164.523438 -28.613281 157.015625 -21.1875 C 149.503906 -13.769531 139.253906 -8.070312 126.265625 -4.09375 C 113.285156 -0.125 98.492188 1.859375 81.890625 1.859375 Z M 67.3125 -92.484375 C 77.03125 -92.660156 84.757812 -94.820312 90.5 -98.96875 C 96.238281 -103.125 99.019531 -109 98.84375 -116.59375 C 98.664062 -124.195312 94.515625 -133.03125 86.390625 -143.09375 C 80.378906 -150.875 73.3125 -156.617188 65.1875 -160.328125 C 57.0625 -164.035156 49.46875 -165.890625 42.40625 -165.890625 C 36.570312 -165.890625 32.285156 -164.875 29.546875 -162.84375 C 26.804688 -160.8125 25.210938 -158.46875 24.765625 -155.8125 C 24.328125 -153.164062 24.550781 -150.695312 25.4375 -148.40625 C 26.851562 -145.21875 29.019531 -142.609375 31.9375 -140.578125 C 34.851562 -138.546875 38.164062 -136.515625 41.875 -134.484375 C 45.582031 -132.453125 49.113281 -130.109375 52.46875 -127.453125 C 55.820312 -124.804688 58.601562 -121.316406 60.8125 -116.984375 C 63.019531 -112.660156 64.125 -107.054688 64.125 -100.171875 L 64.125 -24.109375 C 79.675781 -6.085938 94.164062 -0.703125 107.59375 -7.953125 C 110.945312 -9.890625 113.328125 -13.460938 114.734375 -18.671875 C 116.148438 -23.890625 116.285156 -30.078125 115.140625 -37.234375 C 113.992188 -44.390625 111.125 -51.675781 106.53125 -59.09375 C 100.519531 -68.632812 94.066406 -75.613281 87.171875 -80.03125 C 80.285156 -84.445312 73.664062 -86.65625 67.3125 -86.65625 Z M 67.3125 -92.484375 "/></g></g><g style="fill:#ffffff;fill-opacity:0.749;"><g transform="translate(69.019556, 271.180317)"><path style="stroke:none" d="M 4.765625 -126.828125 C 4.765625 -136.535156 7.367188 -145.492188 12.578125 -153.703125 C 17.785156 -161.910156 24.84375 -168.523438 33.75 -173.546875 C 42.664062 -178.578125 52.6875 -181.09375 63.8125 -181.09375 C 70.34375 -181.09375 76.164062 -180.078125 81.28125 -178.046875 C 86.40625 -176.023438 91.039062 -173.644531 95.1875 -170.90625 C 99.332031 -168.164062 103.171875 -165.78125 106.703125 -163.75 C 110.234375 -161.726562 113.585938 -160.71875 116.765625 -160.71875 C 123.472656 -160.71875 127.796875 -162.4375 129.734375 -165.875 C 131.671875 -169.3125 132.640625 -173.945312 132.640625 -179.78125 L 138.734375 -179.78125 C 139.617188 -172.539062 139.707031 -165.082031 139 -157.40625 C 138.289062 -149.726562 136.347656 -142.625 133.171875 -136.09375 C 129.992188 -129.5625 125.316406 -124.265625 119.140625 -120.203125 C 112.960938 -116.140625 104.929688 -114.109375 95.046875 -114.109375 C 88.515625 -114.109375 82.734375 -115.5625 77.703125 -118.46875 C 72.671875 -121.382812 68.125 -125.003906 64.0625 -129.328125 C 60.007812 -133.660156 56.347656 -138.078125 53.078125 -142.578125 C 49.816406 -147.078125 46.640625 -150.957031 43.546875 -154.21875 C 40.460938 -157.488281 37.285156 -159.476562 34.015625 -160.1875 C 30.753906 -160.894531 27.179688 -159.65625 23.296875 -156.46875 C 19.054688 -152.945312 18.394531 -148.582031 21.3125 -143.375 C 24.226562 -138.164062 30.363281 -132.867188 39.71875 -127.484375 C 49.070312 -122.097656 61.160156 -117.289062 75.984375 -113.0625 C 81.628906 -111.46875 88.289062 -109.210938 95.96875 -106.296875 C 103.65625 -103.390625 111.203125 -99.597656 118.609375 -94.921875 C 126.023438 -90.242188 132.203125 -84.550781 137.140625 -77.84375 C 142.085938 -71.132812 144.5625 -63.191406 144.5625 -54.015625 C 144.5625 -44.128906 141.910156 -34.945312 136.609375 -26.46875 C 131.316406 -18 124.171875 -11.160156 115.171875 -5.953125 C 106.171875 -0.742188 95.929688 1.859375 84.453125 1.859375 C 77.921875 1.859375 71.921875 0.800781 66.453125 -1.3125 C 60.984375 -3.4375 55.953125 -5.820312 51.359375 -8.46875 C 46.773438 -11.113281 42.539062 -13.492188 38.65625 -15.609375 C 34.769531 -17.734375 31.148438 -18.796875 27.796875 -18.796875 C 21.265625 -18.796875 16.984375 -17.070312 14.953125 -13.625 C 12.929688 -10.1875 11.921875 -5.554688 11.921875 0.265625 L 6.09375 0.265625 C 5.03125 -6.972656 4.894531 -14.429688 5.6875 -22.109375 C 6.488281 -29.785156 8.476562 -36.890625 11.65625 -43.421875 C 14.832031 -49.953125 19.507812 -55.242188 25.6875 -59.296875 C 31.863281 -63.359375 39.804688 -65.390625 49.515625 -65.390625 C 56.046875 -65.390625 61.957031 -63.929688 67.25 -61.015625 C 72.539062 -58.109375 77.347656 -54.445312 81.671875 -50.03125 C 86.003906 -45.625 90.019531 -41.171875 93.71875 -36.671875 C 97.425781 -32.171875 100.957031 -28.285156 104.3125 -25.015625 C 107.664062 -21.753906 111.019531 -19.769531 114.375 -19.0625 C 117.726562 -18.351562 121.257812 -19.585938 124.96875 -22.765625 C 129.207031 -26.472656 129.425781 -31.0625 125.625 -36.53125 C 121.832031 -42.007812 114.945312 -47.570312 104.96875 -53.21875 C 95 -58.863281 82.515625 -63.894531 67.515625 -68.3125 C 55.515625 -71.84375 44.75 -75.898438 35.21875 -80.484375 C 25.6875 -85.078125 18.226562 -91.035156 12.84375 -98.359375 C 7.457031 -105.679688 4.765625 -115.171875 4.765625 -126.828125 Z M 4.765625 -126.828125 "/></g></g><g style="fill:#222222;fill-opacity:1;"><g transform="translate(78.048046, 261.498446)"><path style="stroke:none" d="M 4.765625 -126.828125 C 4.765625 -136.535156 7.367188 -145.492188 12.578125 -153.703125 C 17.785156 -161.910156 24.84375 -168.523438 33.75 -173.546875 C 42.664062 -178.578125 52.6875 -181.09375 63.8125 -181.09375 C 70.34375 -181.09375 76.164062 -180.078125 81.28125 -178.046875 C 86.40625 -176.023438 91.039062 -173.644531 95.1875 -170.90625 C 99.332031 -168.164062 103.171875 -165.78125 106.703125 -163.75 C 110.234375 -161.726562 113.585938 -160.71875 116.765625 -160.71875 C 123.472656 -160.71875 127.796875 -162.4375 129.734375 -165.875 C 131.671875 -169.3125 132.640625 -173.945312 132.640625 -179.78125 L 138.734375 -179.78125 C 139.617188 -172.539062 139.707031 -165.082031 139 -157.40625 C 138.289062 -149.726562 136.347656 -142.625 133.171875 -136.09375 C 129.992188 -129.5625 125.316406 -124.265625 119.140625 -120.203125 C 112.960938 -116.140625 104.929688 -114.109375 95.046875 -114.109375 C 88.515625 -114.109375 82.734375 -115.5625 77.703125 -118.46875 C 72.671875 -121.382812 68.125 -125.003906 64.0625 -129.328125 C 60.007812 -133.660156 56.347656 -138.078125 53.078125 -142.578125 C 49.816406 -147.078125 46.640625 -150.957031 43.546875 -154.21875 C 40.460938 -157.488281 37.285156 -159.476562 34.015625 -160.1875 C 30.753906 -160.894531 27.179688 -159.65625 23.296875 -156.46875 C 19.054688 -152.945312 18.394531 -148.582031 21.3125 -143.375 C 24.226562 -138.164062 30.363281 -132.867188 39.71875 -127.484375 C 49.070312 -122.097656 61.160156 -117.289062 75.984375 -113.0625 C 81.628906 -111.46875 88.289062 -109.210938 95.96875 -106.296875 C 103.65625 -103.390625 111.203125 -99.597656 118.609375 -94.921875 C 126.023438 -90.242188 132.203125 -84.550781 137.140625 -77.84375 C 142.085938 -71.132812 144.5625 -63.191406 144.5625 -54.015625 C 144.5625 -44.128906 141.910156 -34.945312 136.609375 -26.46875 C 131.316406 -18 124.171875 -11.160156 115.171875 -5.953125 C 106.171875 -0.742188 95.929688 1.859375 84.453125 1.859375 C 77.921875 1.859375 71.921875 0.800781 66.453125 -1.3125 C 60.984375 -3.4375 55.953125 -5.820312 51.359375 -8.46875 C 46.773438 -11.113281 42.539062 -13.492188 38.65625 -15.609375 C 34.769531 -17.734375 31.148438 -18.796875 27.796875 -18.796875 C 21.265625 -18.796875 16.984375 -17.070312 14.953125 -13.625 C 12.929688 -10.1875 11.921875 -5.554688 11.921875 0.265625 L 6.09375 0.265625 C 5.03125 -6.972656 4.894531 -14.429688 5.6875 -22.109375 C 6.488281 -29.785156 8.476562 -36.890625 11.65625 -43.421875 C 14.832031 -49.953125 19.507812 -55.242188 25.6875 -59.296875 C 31.863281 -63.359375 39.804688 -65.390625 49.515625 -65.390625 C 56.046875 -65.390625 61.957031 -63.929688 67.25 -61.015625 C 72.539062 -58.109375 77.347656 -54.445312 81.671875 -50.03125 C 86.003906 -45.625 90.019531 -41.171875 93.71875 -36.671875 C 97.425781 -32.171875 100.957031 -28.285156 104.3125 -25.015625 C 107.664062 -21.753906 111.019531 -19.769531 114.375 -19.0625 C 117.726562 -18.351562 121.257812 -19.585938 124.96875 -22.765625 C 129.207031 -26.472656 129.425781 -31.0625 125.625 -36.53125 C 121.832031 -42.007812 114.945312 -47.570312 104.96875 -53.21875 C 95 -58.863281 82.515625 -63.894531 67.515625 -68.3125 C 55.515625 -71.84375 44.75 -75.898438 35.21875 -80.484375 C 25.6875 -85.078125 18.226562 -91.035156 12.84375 -98.359375 C 7.457031 -105.679688 4.765625 -115.171875 4.765625 -126.828125 Z M 4.765625 -126.828125 "/></g></g></g></svg>